# xmcd
#
# Track frame offsets:
#	150
#	20700
#	38923
#	58621
#	75216
#	91680
#	109243
#	131704
#	149226
#	167241
#	185858
#	202996
#	220884
#	238590
#	256521
#	279111
#	295778
#	314281
#	329883
#
# Disc length: 4628 seconds
#
# Revision: 0
# Processed by: cddbd v1.5.1PL2 Copyright (c) Steve Scherf et al.
# Submitted via: EasyCDDAExtractor 9.0.0.1
#
DISCID=1b121213
DTITLE=Akhenaton - Double chill burger [CD2)
DYEAR=2005
DGENRE=Rap
TTITLE0=Entrer Dans La Légende
TTITLE1=New York City Transit
TTITLE2=A Vouloir Toucher Dieu...
TTITLE3=Ecoeuré
TTITLE4=Mes Soleils Et Mes Lunes (Acou
TTITLE5=J'ai Vraiment Pas De Face
TTITLE6=Nid De Guêpes
TTITLE7=Quand Ca Se Disperse
TTITLE8=Horizon Vertical
TTITLE9=Chaque Jour
TTITLE10=Une Journée Chez Le Diable
TTITLE11=T'as L'air Surpris Minable
TTITLE12=Ace
TTITLE13=Electric Vibes
TTITLE14=L'encre De Nos Plumes (Chiens
TTITLE15=Le Vent (Feat. Shurik'N)
TTITLE16=Supa Bad (Feat. Bouga)
TTITLE17=Leurs Temps De Cuisson (Feat.
TTITLE18=Mon Texte, Le Savon (Part 2)
EXTD=
EXTT0=
EXTT1=
EXTT2=
EXTT3=
EXTT4=
EXTT5=
EXTT6=
EXTT7=
EXTT8=
EXTT9=
EXTT10=
EXTT11=
EXTT12=
EXTT13=
EXTT14=
EXTT15=
EXTT16=
EXTT17=
EXTT18=
PLAYORDER=
